<svg version="1.1" id="Layer_1" xmlns="http://www.w3.org/2000/svg" xmlns:xlink="http://www.w3.org/1999/xlink" x="0px" y="0px"
	 width="100%" viewBox="0 0 591 543" enable-background="new 0 0 591 543" xml:space="preserve">
<path fill="#010100" opacity="1.000000" stroke="none" 
	d="
M592.000000,202.000000 
	C592.000000,316.333313 592.000000,430.166626 592.000000,544.000000 
	C395.000031,544.000000 198.000076,544.000000 1.000083,544.000000 
	C1.000056,363.000061 1.000056,182.000122 1.000028,1.000132 
	C197.999924,1.000088 394.999847,1.000088 591.999878,1.000044 
	C592.000000,67.833336 592.000000,134.666672 592.000000,202.000000 
M57.820770,68.045181 
	C57.820770,68.045181 57.536697,68.159653 57.757195,68.823692 
	C58.739986,70.330727 59.722782,71.837753 60.729244,73.219284 
	C60.729244,73.219284 60.602299,73.205254 60.743561,73.882820 
	C61.810284,75.598045 62.877010,77.313278 64.023956,79.597725 
	C64.354340,80.049629 64.684715,80.501534 65.124725,81.609154 
	C65.953430,82.879669 66.782127,84.150177 67.652321,85.254303 
	C67.652321,85.254303 67.483429,85.224594 67.648788,85.942741 
	C70.438499,90.631859 73.228203,95.320976 76.048149,100.448921 
	C76.139236,100.749100 76.327263,100.964752 76.772339,101.796814 
	C78.181381,103.533348 79.590431,105.269875 81.914948,107.224228 
	C94.566093,107.251991 107.217346,107.324722 119.868370,107.297119 
	C139.505920,107.254280 159.143311,107.143105 179.599838,107.250740 
	C183.110046,107.250740 186.620255,107.250740 191.167633,107.250740 
	C185.968506,116.697586 181.479065,124.854927 177.017563,133.005936 
	C177.017563,133.005936 177.006668,132.979279 176.489014,133.396271 
	C176.112732,134.205170 175.736450,135.014053 175.582458,135.724579 
	C175.582458,135.724579 175.471817,135.508133 175.002716,135.987656 
	C173.348831,139.008667 171.694931,142.029678 169.517639,145.333954 
	C169.324341,145.886261 169.131027,146.438583 168.600800,147.250885 
	C168.600800,147.250885 168.476227,147.657822 168.570786,147.657394 
	C168.570786,147.657394 168.555038,147.564148 168.043427,147.990982 
	C165.857880,151.854095 163.672333,155.717224 161.660980,159.741104 
	C161.660980,159.741104 161.815964,159.561722 161.271378,159.862549 
	C161.152969,160.253159 161.034561,160.643753 160.996902,160.983200 
	C160.996902,160.983200 160.945572,160.902527 160.365295,161.254791 
	C158.221497,165.165009 156.077682,169.075211 153.996063,172.986359 
	C153.996063,172.986359 153.970474,172.929657 153.420898,173.327042 
	C148.097397,182.458801 142.690079,191.543762 137.538177,200.771332 
	C136.739563,202.201767 136.385941,204.654175 137.071777,205.998825 
	C139.384216,210.532593 142.258148,214.779968 144.940323,219.069946 
	C144.940323,219.069946 144.871216,219.054733 144.987671,219.767990 
	C147.651031,224.191818 150.314392,228.615646 153.008987,232.995850 
	C153.008987,232.995850 152.956024,232.987335 153.049500,233.581619 
	C153.323013,233.845993 153.596527,234.110352 153.720993,234.190796 
	C153.720993,234.190796 153.540924,234.344482 153.774063,235.020355 
	C156.126831,238.907532 158.479584,242.794724 160.792099,246.868057 
	C160.792099,246.868057 160.962616,246.952850 161.064224,247.666611 
	C162.507645,250.103973 163.951065,252.541321 165.845535,255.740295 
	C166.863480,253.588852 167.465622,252.316223 168.001709,251.018768 
	C168.001709,251.018768 168.045868,251.074203 168.554459,250.713852 
	C168.748016,250.132217 168.941574,249.550598 169.028503,249.045898 
	C169.028503,249.045898 169.106247,249.151962 169.690704,248.800522 
	C177.450500,235.186890 185.210312,221.573257 193.174149,207.727982 
	C193.174149,207.727982 193.197235,207.420151 193.756271,207.023468 
	C196.333878,202.420685 198.911484,197.817917 201.335083,193.226761 
	C201.335083,193.226761 201.357925,193.379501 201.897568,192.975723 
	C204.288910,188.659088 206.680252,184.342453 209.007782,180.022324 
	C209.007782,180.022324 209.040253,180.077362 209.584518,179.665268 
	C213.074295,173.449234 216.564056,167.233215 219.998184,161.005936 
	C219.998184,161.005936 220.025482,161.055725 220.573868,160.660370 
	C223.771561,154.803177 226.969238,148.945984 230.095200,143.089111 
	C230.095200,143.089111 230.110092,143.159286 230.722687,142.873199 
	C234.676163,136.028915 238.629639,129.184631 242.483978,122.356163 
	C242.483978,122.356163 242.516083,122.451286 242.966919,121.959618 
	C244.650421,119.088226 246.624191,116.344002 247.950668,113.316200 
	C250.035080,108.558250 253.275772,107.191391 258.462097,107.211029 
	C311.768707,107.412827 365.076416,107.332031 418.383789,107.330574 
	C451.367737,107.329681 484.351959,107.268402 517.335266,107.416367 
	C520.961914,107.432640 523.347534,106.568581 524.771973,103.171371 
	C525.665344,101.040878 526.851501,99.033188 528.409302,96.647224 
	C528.624634,96.100876 528.839966,95.554527 529.575500,94.592880 
	C531.960999,90.379837 534.346558,86.166794 536.981689,81.498749 
	C537.013977,81.328781 537.046204,81.158821 537.570129,80.685440 
	C537.765259,80.155418 537.960388,79.625397 538.673706,78.668190 
	C539.644592,76.877121 540.615479,75.086052 541.434998,73.318443 
	C541.434998,73.318443 541.473206,73.466782 542.025940,72.977188 
	C542.844177,67.397789 543.662415,61.818386 544.545776,55.795223 
	C379.132050,55.795223 215.129410,55.795223 50.115952,55.795223 
	C52.337254,59.362423 54.132954,62.246151 56.002922,65.041771 
	C56.002922,65.041771 55.914810,64.967514 56.022465,65.656410 
	C56.344967,65.965622 56.667473,66.274841 56.797852,66.716423 
	C56.797852,66.716423 56.926559,66.911011 57.032982,67.532570 
	C57.332756,67.798523 57.632530,68.064468 57.820770,68.045181 
M279.508789,128.693863 
	C276.342651,128.687744 273.166260,128.837692 270.013336,128.630615 
	C266.995758,128.432434 265.271454,129.530685 263.738037,132.245865 
	C236.385468,180.678284 208.939240,229.057907 181.412201,277.391388 
	C179.889465,280.065125 179.901321,282.051178 181.450241,284.651459 
	C187.159821,294.236542 192.629105,303.964386 198.240280,313.608551 
	C200.273621,317.103302 202.451599,320.513885 204.901901,324.515381 
	C229.263123,280.287842 253.164810,236.894608 277.066498,193.501358 
	C277.490448,193.687637 277.914398,193.873917 278.338379,194.060196 
	C263.072937,247.080566 247.807510,300.100952 232.302551,353.953278 
	C234.788696,353.953278 236.399979,353.947418 238.011185,353.954224 
	C250.842789,354.008453 263.686981,353.750763 276.500336,354.262970 
	C282.293762,354.494598 285.910126,352.382751 289.615234,348.183563 
	C331.701050,300.485229 373.966125,252.944992 416.201874,205.379059 
	C417.088989,204.379959 418.198273,203.578110 419.203918,202.684235 
	C419.630432,202.993515 420.056946,203.302780 420.483490,203.612061 
	C419.514862,205.562744 418.694824,207.605118 417.555908,209.450729 
	C389.309296,255.224503 361.014099,300.968353 332.808990,346.767670 
	C331.689209,348.586029 331.368866,350.896667 330.675995,352.977936 
	C332.818634,353.481598 334.953766,354.382782 337.105103,354.423279 
	C349.433105,354.655334 361.766846,354.591187 374.094330,354.839661 
	C377.505585,354.908417 379.506775,353.744141 381.240448,350.749115 
	C423.036652,278.543365 464.927704,206.392502 506.792267,134.226318 
	C507.673248,132.707657 508.444733,131.125458 509.742706,128.675659 
	C507.018280,128.675659 505.245880,128.675537 503.473480,128.675674 
	C481.975861,128.677399 460.477142,128.789703 438.981537,128.583527 
	C434.899078,128.544373 432.278900,129.905014 429.626129,132.881577 
	C388.183044,179.382416 346.628510,225.783997 305.116699,272.223663 
	C304.016144,273.454865 303.107147,274.857269 302.108826,276.179840 
	C301.701752,275.826233 301.294647,275.472595 300.887543,275.118988 
	C315.047119,226.516388 329.206696,177.913788 343.546112,128.693802 
	C321.786346,128.693802 301.146271,128.693802 279.508789,128.693863 
M349.635620,406.134766 
	C354.329224,397.987976 359.022827,389.841187 363.958832,381.273621 
	C321.815521,381.273621 280.490997,381.273621 238.245316,381.273621 
	C259.280243,417.696411 279.925812,453.445038 301.077759,490.070465 
	C317.489105,461.698029 333.375885,434.232483 349.635620,406.134766 
z"/>
<path fill="#A5902C" opacity="1.000000" stroke="none" 
	d="
M280.007507,128.693832 
	C301.146271,128.693802 321.786346,128.693802 343.546112,128.693802 
	C329.206696,177.913788 315.047119,226.516388 300.887543,275.118988 
	C301.294647,275.472595 301.701752,275.826233 302.108826,276.179840 
	C303.107147,274.857269 304.016144,273.454865 305.116699,272.223663 
	C346.628510,225.783997 388.183044,179.382416 429.626129,132.881577 
	C432.278900,129.905014 434.899078,128.544373 438.981537,128.583527 
	C460.477142,128.789703 481.975861,128.677399 503.473480,128.675674 
	C505.245880,128.675537 507.018280,128.675659 509.742706,128.675659 
	C508.444733,131.125458 507.673248,132.707657 506.792267,134.226318 
	C464.927704,206.392502 423.036652,278.543365 381.240448,350.749115 
	C379.506775,353.744141 377.505585,354.908417 374.094330,354.839661 
	C361.766846,354.591187 349.433105,354.655334 337.105103,354.423279 
	C334.953766,354.382782 332.818634,353.481598 330.675995,352.977936 
	C331.368866,350.896667 331.689209,348.586029 332.808990,346.767670 
	C361.014099,300.968353 389.309296,255.224503 417.555908,209.450729 
	C418.694824,207.605118 419.514862,205.562744 420.483490,203.612061 
	C420.056946,203.302780 419.630432,202.993515 419.203918,202.684235 
	C418.198273,203.578110 417.088989,204.379959 416.201874,205.379059 
	C373.966125,252.944992 331.701050,300.485229 289.615234,348.183563 
	C285.910126,352.382751 282.293762,354.494598 276.500336,354.262970 
	C263.686981,353.750763 250.842789,354.008453 238.011185,353.954224 
	C236.399979,353.947418 234.788696,353.953278 232.302551,353.953278 
	C247.807510,300.100952 263.072937,247.080566 278.338379,194.060196 
	C277.914398,193.873917 277.490448,193.687637 277.066498,193.501358 
	C253.164810,236.894608 229.263123,280.287842 204.901901,324.515381 
	C202.451599,320.513885 200.273621,317.103302 198.240280,313.608551 
	C192.629105,303.964386 187.159821,294.236542 181.450241,284.651459 
	C179.901321,282.051178 179.889465,280.065125 181.412201,277.391388 
	C208.939240,229.057907 236.385468,180.678284 263.738037,132.245865 
	C265.271454,129.530685 266.995758,128.432434 270.013336,128.630615 
	C273.166260,128.837692 276.342651,128.687744 280.007507,128.693832 
z"/>
<path fill="#A5902C" opacity="1.000000" stroke="none" 
	d="
M65.015091,80.953438 
	C64.684715,80.501534 64.354340,80.049629 64.089996,79.041183 
	C62.971462,76.724854 61.786880,74.965050 60.602299,73.205254 
	C60.602299,73.205254 60.729244,73.219284 60.689270,72.921387 
	C59.611767,71.135544 58.574230,69.647598 57.536697,68.159653 
	C57.536697,68.159653 57.820770,68.045181 57.719955,67.943237 
	C57.388279,67.531204 57.157417,67.221107 56.926559,66.911011 
	C56.926559,66.911011 56.797852,66.716423 56.728981,66.372238 
	C56.411674,65.674538 56.163242,65.321030 55.914810,64.967514 
	C55.914810,64.967514 56.002922,65.041771 55.963234,64.696411 
	C55.610664,62.262165 55.297783,60.173275 54.897270,57.499336 
	C57.519463,57.320770 59.772114,57.034233 62.024876,57.033318 
	C129.442230,57.005859 196.859589,57.006008 264.276947,57.003300 
	C291.077423,57.002220 317.878326,56.939049 344.677704,57.111027 
	C347.245483,57.127510 349.803772,58.619053 352.241394,59.684349 
	C353.324066,62.503387 354.531830,65.063896 355.732758,67.609932 
	C353.888336,68.279480 352.044525,68.948807 349.982361,69.599487 
	C349.464539,69.630783 349.209412,69.765015 348.670258,70.026405 
	C348.008606,70.347702 347.675262,70.626144 347.243652,70.865311 
	C347.145386,70.826035 347.001465,70.981224 346.706390,70.998108 
	C345.954865,71.348328 345.498413,71.681656 344.749329,72.181595 
	C342.649323,74.491737 340.429230,76.408890 339.107361,78.818748 
	C333.925934,88.264778 337.014221,98.426521 345.699982,101.356194 
	C358.002625,105.505821 371.136261,97.248253 372.697571,84.381912 
	C373.699036,76.128838 369.252869,70.291740 360.957947,68.579178 
	C364.134460,64.405510 361.623779,61.880363 359.167664,59.065929 
	C361.883850,58.161629 364.377899,57.086433 366.873749,57.082226 
	C422.498413,56.988453 478.123230,57.012577 533.748047,57.015923 
	C534.747192,57.015984 535.749390,57.090275 536.744995,57.035812 
	C540.641418,56.822670 542.196167,58.804100 542.000366,62.513821 
	C541.807800,66.163925 541.647644,69.815727 541.473206,73.466782 
	C541.473206,73.466782 541.434998,73.318443 541.182556,73.422409 
	C540.005310,75.382706 539.080444,77.239044 538.155579,79.095383 
	C537.960388,79.625397 537.765259,80.155418 537.047974,80.838379 
	C536.341858,80.997345 536.157898,81.003372 535.732788,81.240196 
	C533.346130,85.983376 531.200684,90.495773 529.055298,95.008179 
	C528.839966,95.554527 528.624634,96.100876 527.846313,96.929947 
	C526.431152,97.984169 525.175781,98.594444 524.792297,99.553375 
	C522.343323,105.676910 517.455872,106.104538 511.748657,106.089958 
	C426.338806,105.871658 340.928619,105.788918 255.518463,105.743484 
	C253.615921,105.742477 250.662720,105.939919 249.992432,107.089813 
	C247.132629,111.995972 244.947433,117.295372 242.516083,122.451279 
	C242.516083,122.451286 242.483978,122.356163 242.190781,122.458084 
	C235.886368,128.235016 232.491913,135.407425 230.110092,143.159286 
	C230.110092,143.159286 230.095200,143.089111 229.818726,143.226364 
	C226.370010,149.260986 223.197754,155.158356 220.025482,161.055725 
	C220.025482,161.055725 219.998184,161.005936 219.723145,161.156036 
	C214.810104,166.915207 210.101562,172.485168 209.040253,180.077362 
	C209.040253,180.077362 209.007782,180.022324 208.717712,180.139832 
	C206.071060,184.631393 203.714493,189.005447 201.357925,193.379501 
	C201.357925,193.379501 201.335083,193.226761 201.082825,193.363052 
	C198.286133,198.139618 195.741684,202.779892 193.197235,207.420151 
	C193.197235,207.420151 193.174149,207.727982 192.780090,208.015793 
	C191.021805,209.922653 189.423126,211.398651 188.333237,213.185074 
	C183.097717,221.766556 177.855438,230.350800 172.930603,239.111191 
	C171.194763,242.198929 170.355087,245.790451 169.106247,249.151962 
	C169.106247,249.151962 169.028503,249.045898 168.904022,249.246948 
	C168.534973,249.990067 168.290421,250.532135 168.045868,251.074203 
	C168.045868,251.074203 168.001709,251.018768 167.683289,250.966736 
	C165.230789,249.594070 163.096710,248.273468 160.962616,246.952850 
	C160.962616,246.952850 160.792099,246.868057 160.770294,246.366180 
	C159.248260,241.459824 158.753479,236.426285 153.540924,234.344482 
	C153.540924,234.344482 153.720993,234.190796 153.659424,234.040070 
	C153.383911,233.588684 153.169968,233.288010 152.956024,232.987335 
	C152.956024,232.987335 153.008987,232.995850 152.987350,232.630341 
	C150.267548,227.861465 147.569382,223.458099 144.871216,219.054733 
	C144.871216,219.054733 144.940323,219.069946 144.909241,218.721710 
	C143.179428,214.612717 141.225983,210.939590 139.889008,207.054337 
	C139.216629,205.100433 138.941757,202.431168 139.749725,200.662033 
	C141.668701,196.460159 144.537994,192.703613 146.657776,188.579269 
	C149.288010,183.461761 151.549637,178.154785 153.970474,172.929657 
	C153.970474,172.929657 153.996063,172.986359 154.269745,172.841705 
	C156.677490,168.765549 158.811523,164.834030 160.945572,160.902527 
	C160.945572,160.902527 160.996902,160.983200 161.121887,160.773804 
	C161.436569,160.230179 161.626266,159.895950 161.815964,159.561722 
	C161.815964,159.561722 161.660980,159.741104 161.917358,159.589447 
	C164.300827,155.479904 166.427933,151.522034 168.555038,147.564148 
	C168.555038,147.564148 168.570786,147.657394 168.633499,147.618744 
	C168.901199,147.436691 168.981689,147.240280 168.937714,146.990891 
	C169.131027,146.438583 169.324341,145.886261 170.096344,145.065765 
	C172.273956,141.701096 173.872879,138.604614 175.471817,135.508133 
	C175.471817,135.508133 175.582458,135.724579 175.731339,135.546234 
	C176.255707,134.571671 176.631180,133.775482 177.006668,132.979279 
	C177.006668,132.979279 177.017563,133.005936 177.336838,132.924377 
	C178.883743,131.551590 180.391846,130.429169 181.288727,128.938919 
	C184.546143,123.526443 187.700241,118.044662 190.664902,112.467621 
	C191.517426,110.863876 191.600845,108.851303 192.036911,107.026184 
	C190.022186,106.690430 188.007462,106.354683 185.524536,106.017181 
	C150.380356,105.978912 115.704391,105.942383 80.855042,105.672523 
	C79.325188,103.991417 77.968712,102.543640 76.612236,101.095863 
	C76.327263,100.964752 76.139236,100.749100 76.125732,99.944695 
	C73.296684,94.701843 70.390053,89.963219 67.483429,85.224594 
	C67.483429,85.224594 67.652321,85.254303 67.651871,84.971870 
	C66.772644,83.444099 65.893867,82.198769 65.015091,80.953438 
M305.036011,101.047234 
	C305.036011,101.047234 304.994995,101.139252 305.395966,101.712738 
	C311.911682,104.194992 315.566162,102.487930 315.986420,96.151909 
	C316.999512,94.440414 318.012604,92.728920 319.025665,91.017426 
	C319.398315,91.177475 319.770935,91.337517 320.143585,91.497566 
	C319.877228,94.693176 319.610870,97.888779 319.347870,101.043991 
	C326.592590,102.527603 326.735931,102.436348 328.181152,95.687286 
	C328.738434,93.084717 329.334625,90.490173 329.864258,87.882042 
	C331.105011,81.772324 332.316162,75.656601 333.613525,69.172569 
	C331.321503,69.049767 329.834778,69.121483 328.406494,68.866211 
	C323.414795,67.974091 320.492096,69.964256 318.633423,74.693237 
	C317.011078,78.820869 314.568604,82.626137 312.488464,86.573830 
	C311.977203,86.460205 311.465912,86.346588 310.954620,86.232964 
	C310.954620,82.117645 311.020081,78.000893 310.929596,73.887566 
	C310.876862,71.489990 311.345856,68.312965 307.355164,68.967827 
	C303.974487,69.522583 299.178284,66.315216 297.878937,72.904808 
	C296.274231,81.043068 293.973938,89.044167 291.568542,97.311829 
	C291.490387,98.188217 291.412231,99.064606 291.682190,100.832039 
	C291.819977,101.119614 291.957733,101.407196 292.531281,102.098724 
	C294.660461,101.953613 296.789642,101.808502 299.265015,101.259346 
	C299.407532,101.153801 299.550079,101.048256 300.089783,100.542305 
	C300.755341,98.906021 301.420868,97.269745 302.213745,95.320351 
	C303.214142,96.039658 303.971954,96.584557 304.844116,97.716522 
	C304.837402,98.114388 304.830719,98.512260 304.664337,99.323204 
	C304.760132,99.879494 304.855927,100.435776 305.036011,101.047234 
M178.985779,89.969650 
	C183.456085,89.966187 187.936081,90.127716 192.391281,89.866562 
	C193.878281,89.779404 195.301880,88.610893 196.970901,87.170555 
	C197.320328,85.317413 197.669769,83.464272 198.126709,81.040924 
	C191.716278,81.040924 186.098343,81.040924 180.501999,81.040924 
	C180.078842,76.685913 181.921371,75.236794 185.715637,75.457344 
	C189.036163,75.650368 192.395569,75.267296 195.704880,75.539246 
	C200.569000,75.938957 201.718567,73.563171 201.122864,68.889908 
	C196.961075,68.889908 192.993469,68.837166 189.027847,68.903435 
	C184.216217,68.983841 177.924515,67.371140 174.997894,69.789001 
	C171.853043,72.387161 171.749252,78.780273 170.535431,83.572403 
	C169.083099,89.306145 167.860565,95.098091 166.338211,101.738396 
	C175.004898,101.738396 182.792587,101.477509 190.552216,101.831505 
	C195.596832,102.061653 196.871262,99.819260 196.455093,94.825577 
	C189.885254,94.825577 183.510269,94.825577 176.543274,94.825577 
	C177.199951,92.705009 177.628876,91.319878 178.985779,89.969650 
M377.763031,86.105484 
	C376.605621,91.049637 375.448242,95.993790 374.152161,101.530449 
	C382.145264,101.530449 389.288086,101.936913 396.366577,101.435226 
	C406.992615,100.682098 410.596069,93.531425 405.281647,84.252151 
	C408.542389,81.667847 410.263275,78.293274 408.531830,74.211861 
	C406.715363,69.929955 402.734619,69.060303 398.542755,68.992020 
	C394.211182,68.921463 389.875000,69.015434 385.547485,68.856392 
	C383.041290,68.764275 381.504333,69.366058 380.982208,72.144966 
	C380.152466,76.561073 378.984863,80.913696 377.763031,86.105484 
M253.526245,75.404152 
	C253.937469,73.516853 254.348679,71.629555 254.754898,69.765251 
	C246.945358,67.825783 246.427933,68.108078 244.879395,74.624908 
	C243.418518,80.772804 241.922287,86.912392 240.487457,93.066330 
	C239.869598,95.716278 239.367371,98.393188 238.753845,101.340126 
	C243.610199,101.815666 247.444946,103.142799 248.679031,96.684700 
	C250.470993,87.307198 250.923492,87.386932 260.547699,87.786758 
	C261.171539,87.812675 261.786163,88.060287 262.705139,88.274818 
	C261.778381,92.598572 260.887085,96.756844 260.001038,100.890617 
	C267.943054,102.771355 268.319916,102.544952 270.028320,95.484444 
	C270.888092,91.931183 271.823120,88.395699 272.649139,84.834785 
	C273.828583,79.750183 274.939178,74.649620 276.084351,69.532944 
	C267.950897,68.217499 267.564270,68.390312 266.296173,73.784340 
	C264.315613,82.208687 265.987061,80.855469 257.041229,81.009598 
	C255.732910,81.032143 254.421280,80.862892 252.675690,80.755623 
	C252.910156,79.083794 253.110748,77.653511 253.526245,75.404152 
M212.790894,90.080910 
	C213.691025,86.458717 213.901123,82.451286 215.656723,79.306702 
	C218.145981,74.848045 225.281311,73.661804 227.628281,77.157257 
	C230.577759,81.550064 233.788284,80.317467 237.428528,79.367012 
	C236.643143,72.313194 231.695526,68.303047 223.923157,68.169968 
	C213.686584,67.994705 205.210571,75.096535 204.083633,84.792984 
	C203.005951,94.065666 206.452499,100.043854 214.079269,101.724655 
	C221.869919,103.441605 233.084259,99.384193 235.326599,90.217606 
	C231.512131,89.215561 228.193420,87.791412 225.055099,92.465477 
	C221.947937,97.093132 216.283081,96.013100 212.790894,90.080910 
M152.192902,98.695358 
	C153.568024,92.881035 155.131866,87.102875 156.255310,81.240326 
	C157.073898,76.968445 158.884384,74.763748 163.572418,75.431633 
	C168.100418,76.076736 169.490982,73.588577 168.712845,68.891159 
	C160.768646,68.891159 152.806320,69.111191 144.863953,68.808311 
	C140.130844,68.627815 138.583191,70.475395 139.291534,75.094040 
	C142.339981,75.370857 145.254791,75.635544 148.691895,75.947655 
	C146.739807,84.534485 144.881302,92.709679 142.582443,102.821838 
	C146.587555,101.404747 149.295135,100.446747 152.192902,98.695358 
M441.533051,78.188980 
	C442.137115,75.328545 442.741150,72.468109 443.343262,69.616890 
	C435.130157,67.970284 435.114258,67.970413 433.364380,75.178139 
	C431.638428,82.287323 429.910248,89.396233 428.249359,96.520721 
	C427.897522,98.030022 427.833099,99.606323 427.559998,101.750320 
	C435.411346,101.750320 442.537109,101.589073 449.651337,101.806007 
	C454.537048,101.954979 455.601135,99.630112 454.837158,94.987488 
	C449.190887,94.987488 443.753387,94.987488 437.683838,94.987488 
	C438.967926,89.268211 440.124512,84.116737 441.533051,78.188980 
M424.951874,82.529434 
	C425.933228,78.233932 426.914612,73.938438 427.897308,69.637047 
	C419.669861,68.002312 419.512756,68.088219 417.827759,75.049263 
	C416.736694,79.556694 415.658203,84.067245 414.595184,88.581375 
	C413.625061,92.701057 412.683380,96.827431 411.730499,100.945152 
	C419.865601,102.659653 420.274017,102.403938 421.900604,95.419014 
	C422.839233,91.388237 423.826233,87.368729 424.951874,82.529434 
z"/>
<path fill="#A5902C" opacity="1.000000" stroke="none" 
	d="
M349.449127,406.450867 
	C333.375885,434.232483 317.489105,461.698029 301.077759,490.070465 
	C279.925812,453.445038 259.280243,417.696411 238.245316,381.273621 
	C280.490997,381.273621 321.815521,381.273621 363.958832,381.273621 
	C359.022827,389.841187 354.329224,397.987976 349.449127,406.450867 
z"/>
<path fill="#9B9043" opacity="1.000000" stroke="none" 
	d="
M352.366486,59.425827 
	C349.803772,58.619053 347.245483,57.127510 344.677704,57.111027 
	C317.878326,56.939049 291.077423,57.002220 264.276947,57.003300 
	C196.859589,57.006008 129.442230,57.005859 62.024876,57.033318 
	C59.772114,57.034233 57.519463,57.320770 54.897270,57.499336 
	C55.297783,60.173275 55.610664,62.262165 55.926102,64.740463 
	C54.132954,62.246151 52.337254,59.362423 50.115952,55.795223 
	C215.129410,55.795223 379.132050,55.795223 544.545776,55.795223 
	C543.662415,61.818386 542.844177,67.397789 541.749573,73.221985 
	C541.647644,69.815727 541.807800,66.163925 542.000366,62.513821 
	C542.196167,58.804100 540.641418,56.822670 536.744995,57.035812 
	C535.749390,57.090275 534.747192,57.015984 533.748047,57.015923 
	C478.123230,57.012577 422.498413,56.988453 366.873749,57.082226 
	C364.377899,57.086433 361.883850,58.161629 358.756775,59.136410 
	C356.205231,59.498501 354.285858,59.462166 352.366486,59.425827 
z"/>
<path fill="#95893E" opacity="1.000000" stroke="none" 
	d="
M242.741486,122.205444 
	C244.947433,117.295372 247.132629,111.995972 249.992432,107.089813 
	C250.662720,105.939919 253.615921,105.742477 255.518463,105.743484 
	C340.928619,105.788918 426.338806,105.871658 511.748657,106.089958 
	C517.455872,106.104538 522.343323,105.676910 524.792297,99.553375 
	C525.175781,98.594444 526.431152,97.984169 527.594788,97.091530 
	C526.851501,99.033188 525.665344,101.040878 524.771973,103.171371 
	C523.347534,106.568581 520.961914,107.432640 517.335266,107.416367 
	C484.351959,107.268402 451.367737,107.329681 418.383789,107.330574 
	C365.076416,107.332031 311.768707,107.412827 258.462097,107.211029 
	C253.275772,107.191391 250.035080,108.558250 247.950668,113.316200 
	C246.624191,116.344002 244.650421,119.088226 242.741486,122.205444 
z"/>
<path fill="#95893E" opacity="1.000000" stroke="none" 
	d="
M153.695679,173.128357 
	C151.549637,178.154785 149.288010,183.461761 146.657776,188.579269 
	C144.537994,192.703613 141.668701,196.460159 139.749725,200.662033 
	C138.941757,202.431168 139.216629,205.100433 139.889008,207.054337 
	C141.225983,210.939590 143.179428,214.612717 144.897751,218.755188 
	C142.258148,214.779968 139.384216,210.532593 137.071777,205.998825 
	C136.385941,204.654175 136.739563,202.201767 137.538177,200.771332 
	C142.690079,191.543762 148.097397,182.458801 153.695679,173.128357 
z"/>
<path fill="#998D40" opacity="1.000000" stroke="none" 
	d="
M81.028419,105.905853 
	C115.704391,105.942383 150.380356,105.978912 185.163635,106.170105 
	C183.107559,106.570137 180.944168,106.815514 178.780777,107.060890 
	C159.143311,107.143105 139.505920,107.254280 119.868370,107.297119 
	C107.217346,107.324722 94.566093,107.251991 81.464630,106.840179 
	C81.019020,106.272705 81.023720,106.089279 81.028419,105.905853 
z"/>
<path fill="#95893E" opacity="1.000000" stroke="none" 
	d="
M169.398468,248.976242 
	C170.355087,245.790451 171.194763,242.198929 172.930603,239.111191 
	C177.855438,230.350800 183.097717,221.766556 188.333237,213.185074 
	C189.423126,211.398651 191.021805,209.922653 192.678070,208.131622 
	C185.210312,221.573257 177.450500,235.186890 169.398468,248.976242 
z"/>
<path fill="#95893E" opacity="1.000000" stroke="none" 
	d="
M179.190308,107.155815 
	C180.944168,106.815514 183.107559,106.570137 185.631836,106.171844 
	C188.007462,106.354683 190.022186,106.690430 192.036911,107.026184 
	C191.600845,108.851303 191.517426,110.863876 190.664902,112.467621 
	C187.700241,118.044662 184.546143,123.526443 181.288727,128.938919 
	C180.391846,130.429169 178.883743,131.551590 177.322876,132.927536 
	C181.479065,124.854927 185.968506,116.697586 191.167633,107.250740 
	C186.620255,107.250740 183.110046,107.250740 179.190308,107.155815 
z"/>
<path fill="#95893E" opacity="1.000000" stroke="none" 
	d="
M230.416382,143.016235 
	C232.491913,135.407425 235.886368,128.235016 242.240356,122.450172 
	C238.629639,129.184631 234.676163,136.028915 230.416382,143.016235 
z"/>
<path fill="#95893E" opacity="1.000000" stroke="none" 
	d="
M209.312378,179.871307 
	C210.101562,172.485168 214.810104,166.915207 219.750977,161.161652 
	C216.564056,167.233215 213.074295,173.449234 209.312378,179.871307 
z"/>
<path fill="#95893E" opacity="1.000000" stroke="none" 
	d="
M220.299683,160.858047 
	C223.197754,155.158356 226.370010,149.260986 229.854584,143.226196 
	C226.969238,148.945984 223.771561,154.803177 220.299683,160.858047 
z"/>
<path fill="#95893E" opacity="1.000000" stroke="none" 
	d="
M529.315369,94.800522 
	C531.200684,90.495773 533.346130,85.983376 535.850830,81.404312 
	C536.374695,81.550880 536.548706,81.756248 536.732056,81.953751 
	C534.346558,86.166794 531.960999,90.379837 529.315369,94.800522 
z"/>
<path fill="#998D40" opacity="1.000000" stroke="none" 
	d="
M67.566109,85.583664 
	C70.390053,89.963219 73.296684,94.701843 76.110611,99.725281 
	C73.228203,95.320976 70.438499,90.631859 67.566109,85.583664 
z"/>
<path fill="#95893E" opacity="1.000000" stroke="none" 
	d="
M144.929443,219.411362 
	C147.569382,223.458099 150.267548,227.861465 152.971741,232.652161 
	C150.314392,228.615646 147.651031,224.191818 144.929443,219.411362 
z"/>
<path fill="#95893E" opacity="1.000000" stroke="none" 
	d="
M193.476761,207.221802 
	C195.741684,202.779892 198.286133,198.139618 201.159836,193.357239 
	C198.911484,197.817917 196.333878,202.420685 193.476761,207.221802 
z"/>
<path fill="#95893E" opacity="1.000000" stroke="none" 
	d="
M201.627747,193.177612 
	C203.714493,189.005447 206.071060,184.631393 208.749603,180.141571 
	C206.680252,184.342453 204.288910,188.659088 201.627747,193.177612 
z"/>
<path fill="#95893E" opacity="1.000000" stroke="none" 
	d="
M168.299225,147.777557 
	C166.427933,151.522034 164.300827,155.479904 161.830261,159.509064 
	C163.672333,155.717224 165.857880,151.854095 168.299225,147.777557 
z"/>
<path fill="#95893E" opacity="1.000000" stroke="none" 
	d="
M153.657501,234.682419 
	C158.753479,236.426285 159.248260,241.459824 160.790405,246.273102 
	C158.479584,242.794724 156.126831,238.907532 153.657501,234.682419 
z"/>
<path fill="#95893E" opacity="1.000000" stroke="none" 
	d="
M160.655426,161.078659 
	C158.811523,164.834030 156.677490,168.765549 154.238647,172.841232 
	C156.077682,169.075211 158.221497,165.165009 160.655426,161.078659 
z"/>
<path fill="#95893E" opacity="1.000000" stroke="none" 
	d="
M161.013428,247.309723 
	C163.096710,248.273468 165.230789,249.594070 167.716324,250.979156 
	C167.465622,252.316223 166.863480,253.588852 165.845535,255.740295 
	C163.951065,252.541321 162.507645,250.103973 161.013428,247.309723 
z"/>
<path fill="#95893E" opacity="1.000000" stroke="none" 
	d="
M175.237274,135.747894 
	C173.872879,138.604614 172.273956,141.701096 170.358032,144.924133 
	C171.694931,142.029678 173.348831,139.008667 175.237274,135.747894 
z"/>
<path fill="#9B9043" opacity="1.000000" stroke="none" 
	d="
M538.414673,78.881790 
	C539.080444,77.239044 540.005310,75.382706 541.258240,73.410675 
	C540.615479,75.086052 539.644592,76.877121 538.414673,78.881790 
z"/>
<path fill="#998D40" opacity="1.000000" stroke="none" 
	d="
M60.672928,73.544037 
	C61.786880,74.965050 62.971462,76.724854 64.049889,78.756577 
	C62.877010,77.313278 61.810284,75.598045 60.672928,73.544037 
z"/>
<path fill="#95893E" opacity="1.000000" stroke="none" 
	d="
M80.855042,105.672516 
	C81.023720,106.089279 81.019020,106.272705 81.006897,106.731277 
	C79.590431,105.269875 78.181381,103.533348 76.692291,101.446335 
	C77.968712,102.543640 79.325188,103.991417 80.855042,105.672516 
z"/>
<path fill="#998D40" opacity="1.000000" stroke="none" 
	d="
M57.646942,68.491669 
	C58.574230,69.647598 59.611767,71.135544 60.677437,72.984131 
	C59.722782,71.837753 58.739986,70.330727 57.646942,68.491669 
z"/>
<path fill="#998D40" opacity="1.000000" stroke="none" 
	d="
M65.069908,81.281296 
	C65.893867,82.198769 66.772644,83.444099 67.631119,85.055069 
	C66.782127,84.150177 65.953430,82.879669 65.069908,81.281296 
z"/>
<path fill="#95893E" opacity="1.000000" stroke="none" 
	d="
M176.747833,133.187775 
	C176.631180,133.775482 176.255707,134.571671 175.620193,135.595413 
	C175.736450,135.014053 176.112732,134.205170 176.747833,133.187775 
z"/>
<path fill="#95893E" opacity="1.000000" stroke="none" 
	d="
M168.300171,250.894028 
	C168.290421,250.532135 168.534973,249.990067 168.957336,249.208496 
	C168.941574,249.550598 168.748016,250.132217 168.300171,250.894028 
z"/>
<path fill="#95893E" opacity="1.000000" stroke="none" 
	d="
M153.002762,233.284485 
	C153.169968,233.288010 153.383911,233.588684 153.733948,234.132050 
	C153.596527,234.110352 153.323013,233.845993 153.002762,233.284485 
z"/>
<path fill="#9B9043" opacity="1.000000" stroke="none" 
	d="
M55.968636,65.311966 
	C56.163242,65.321030 56.411674,65.674538 56.825043,66.306053 
	C56.667473,66.274841 56.344967,65.965622 55.968636,65.311966 
z"/>
<path fill="#95893E" opacity="1.000000" stroke="none" 
	d="
M161.543671,159.712128 
	C161.626266,159.895950 161.436569,160.230179 161.081497,160.799377 
	C161.034561,160.643753 161.152969,160.253159 161.543671,159.712128 
z"/>
<path fill="#95893E" opacity="1.000000" stroke="none" 
	d="
M168.769257,147.120880 
	C168.981689,147.240280 168.901199,147.436691 168.586212,147.618958 
	C168.476227,147.657822 168.600800,147.250885 168.769257,147.120880 
z"/>
<path fill="#998D40" opacity="1.000000" stroke="none" 
	d="
M56.979767,67.221786 
	C57.157417,67.221107 57.388279,67.531204 57.775723,68.085861 
	C57.632530,68.064468 57.332756,67.798523 56.979767,67.221786 
z"/>
<path fill="#9B9043" opacity="1.000000" stroke="none" 
	d="
M536.856873,81.726250 
	C536.548706,81.756248 536.374695,81.550880 536.092041,81.173523 
	C536.157898,81.003372 536.341858,80.997345 536.802124,80.990097 
	C537.046204,81.158821 537.013977,81.328781 536.856873,81.726250 
z"/>
<path fill="#0A0804" opacity="1.000000" stroke="none" 
	d="
M292.095520,101.694778 
	C291.957733,101.407196 291.819977,101.119614 291.693085,100.066696 
	C291.794067,98.569084 291.884155,97.836807 291.974213,97.104530 
	C293.973938,89.044167 296.274231,81.043068 297.878937,72.904808 
	C299.178284,66.315216 303.974487,69.522583 307.355164,68.967827 
	C311.345856,68.312965 310.876862,71.489990 310.929596,73.887566 
	C311.020081,78.000893 310.954620,82.117645 310.954620,86.232964 
	C311.465912,86.346588 311.977203,86.460205 312.488464,86.573830 
	C314.568604,82.626137 317.011078,78.820869 318.633423,74.693237 
	C320.492096,69.964256 323.414795,67.974091 328.406494,68.866211 
	C329.834778,69.121483 331.321503,69.049767 333.613525,69.172569 
	C332.316162,75.656601 331.105011,81.772324 329.864258,87.882042 
	C329.334625,90.490173 328.738434,93.084717 328.181152,95.687286 
	C326.735931,102.436348 326.592590,102.527603 319.347870,101.043991 
	C319.610870,97.888779 319.877228,94.693176 320.143585,91.497566 
	C319.770935,91.337517 319.398315,91.177475 319.025665,91.017426 
	C318.012604,92.728920 316.999512,94.440414 315.626282,96.735207 
	C313.364990,102.685158 309.191101,101.942055 304.994995,101.139252 
	C304.994995,101.139252 305.036011,101.047234 305.024536,100.671097 
	C304.950043,99.833344 304.887024,99.371735 304.824036,98.910126 
	C304.830719,98.512260 304.837402,98.114388 304.847717,96.976608 
	C304.546051,91.851692 304.240784,87.466682 303.935516,83.081680 
	C303.629852,83.087517 303.324188,83.093361 303.018555,83.099197 
	C301.909912,89.047035 300.801270,94.994873 299.692657,100.942711 
	C299.550079,101.048256 299.407532,101.153801 298.672729,101.424622 
	C296.085480,101.624855 294.090485,101.659813 292.095520,101.694778 
z"/>
<path fill="#0B0904" opacity="1.000000" stroke="none" 
	d="
M377.861633,85.699326 
	C378.984863,80.913696 380.152466,76.561073 380.982208,72.144966 
	C381.504333,69.366058 383.041290,68.764275 385.547485,68.856392 
	C389.875000,69.015434 394.211182,68.921463 398.542755,68.992020 
	C402.734619,69.060303 406.715363,69.929955 408.531830,74.211861 
	C410.263275,78.293274 408.542389,81.667847 405.281647,84.252151 
	C410.596069,93.531425 406.992615,100.682098 396.366577,101.435226 
	C389.288086,101.936913 382.145264,101.530449 374.152161,101.530449 
	C375.448242,95.993790 376.605621,91.049637 377.861633,85.699326 
M395.125732,75.408722 
	C388.275208,75.439705 388.213165,75.494072 388.618042,81.355499 
	C391.055908,81.355499 393.599609,81.738190 395.947510,81.224960 
	C397.594849,80.864861 398.975220,79.283348 400.474792,78.247276 
	C398.960724,77.308182 397.446686,76.369087 395.125732,75.408722 
M385.023865,92.640541 
	C386.955017,95.356911 395.832947,96.357544 397.434174,93.786331 
	C398.039001,92.815147 397.705261,90.428009 396.880249,89.566292 
	C395.007721,87.610458 387.131256,89.326691 385.023865,92.640541 
z"/>
<path fill="#0B0803" opacity="1.000000" stroke="none" 
	d="
M178.057816,89.934738 
	C177.628876,91.319878 177.199951,92.705009 176.543274,94.825577 
	C183.510269,94.825577 189.885254,94.825577 196.455093,94.825577 
	C196.871262,99.819260 195.596832,102.061653 190.552216,101.831505 
	C182.792587,101.477509 175.004898,101.738396 166.338211,101.738396 
	C167.860565,95.098091 169.083099,89.306145 170.535431,83.572403 
	C171.749252,78.780273 171.853043,72.387161 174.997894,69.789001 
	C177.924515,67.371140 184.216217,68.983841 189.027847,68.903435 
	C192.993469,68.837166 196.961075,68.889908 201.122864,68.889908 
	C201.718567,73.563171 200.569000,75.938957 195.704880,75.539246 
	C192.395569,75.267296 189.036163,75.650368 185.715637,75.457344 
	C181.921371,75.236794 180.078842,76.685913 180.501999,81.040924 
	C186.098343,81.040924 191.716278,81.040924 198.126709,81.040924 
	C197.669769,83.464272 197.320328,85.317413 196.412933,87.538963 
	C191.136322,87.914818 186.410904,87.786224 181.703613,88.021210 
	C180.459610,88.083305 179.271561,89.266388 178.057816,89.934738 
z"/>
<path fill="#0C0903" opacity="1.000000" stroke="none" 
	d="
M253.418793,75.813690 
	C253.110748,77.653511 252.910156,79.083794 252.675690,80.755623 
	C254.421280,80.862892 255.732910,81.032143 257.041229,81.009598 
	C265.987061,80.855469 264.315613,82.208687 266.296173,73.784340 
	C267.564270,68.390312 267.950897,68.217499 276.084351,69.532944 
	C274.939178,74.649620 273.828583,79.750183 272.649139,84.834785 
	C271.823120,88.395699 270.888092,91.931183 270.028320,95.484444 
	C268.319916,102.544952 267.943054,102.771355 260.001038,100.890617 
	C260.887085,96.756844 261.778381,92.598572 262.705139,88.274818 
	C261.786163,88.060287 261.171539,87.812675 260.547699,87.786758 
	C250.923492,87.386932 250.470993,87.307198 248.679031,96.684700 
	C247.444946,103.142799 243.610199,101.815666 238.753845,101.340126 
	C239.367371,98.393188 239.869598,95.716278 240.487457,93.066330 
	C241.922287,86.912392 243.418518,80.772804 244.879395,74.624908 
	C246.427933,68.108078 246.945358,67.825783 254.754898,69.765251 
	C254.348679,71.629555 253.937469,73.516853 253.418793,75.813690 
z"/>
<path fill="#0B0904" opacity="1.000000" stroke="none" 
	d="
M347.001465,70.981216 
	C347.001465,70.981224 347.145386,70.826035 347.538879,70.744049 
	C348.287750,70.435883 348.643188,70.209717 348.998596,69.983543 
	C349.209412,69.765015 349.464539,69.630783 350.445679,69.595596 
	C354.391205,69.379684 357.654999,69.149017 360.918823,68.918350 
	C369.252869,70.291740 373.699036,76.128838 372.697571,84.381912 
	C371.136261,97.248253 358.002625,105.505821 345.699982,101.356194 
	C337.014221,98.426521 333.925934,88.264778 339.107361,78.818748 
	C340.429230,76.408890 342.649323,74.491737 345.019958,72.106644 
	C346.055969,71.570465 346.528717,71.275841 347.001465,70.981216 
M354.959259,75.290466 
	C349.137268,76.622147 346.250275,80.880714 345.641632,86.235138 
	C345.359436,88.717781 346.641937,92.302063 348.496429,93.898941 
	C351.711639,96.667549 355.682373,95.538437 359.002838,93.044945 
	C362.715210,90.257126 365.046875,84.143463 363.828674,80.221802 
	C362.605133,76.283020 359.682739,74.876694 354.959259,75.290466 
z"/>
<path fill="#0C0A04" opacity="1.000000" stroke="none" 
	d="
M212.879059,90.497131 
	C216.283081,96.013100 221.947937,97.093132 225.055099,92.465477 
	C228.193420,87.791412 231.512131,89.215561 235.326599,90.217606 
	C233.084259,99.384193 221.869919,103.441605 214.079269,101.724655 
	C206.452499,100.043854 203.005951,94.065666 204.083633,84.792984 
	C205.210571,75.096535 213.686584,67.994705 223.923157,68.169968 
	C231.695526,68.303047 236.643143,72.313194 237.428528,79.367012 
	C233.788284,80.317467 230.577759,81.550064 227.628281,77.157257 
	C225.281311,73.661804 218.145981,74.848045 215.656723,79.306702 
	C213.901123,82.451286 213.691025,86.458717 212.879059,90.497131 
z"/>
<path fill="#090702" opacity="1.000000" stroke="none" 
	d="
M152.097809,99.092056 
	C149.295135,100.446747 146.587555,101.404747 142.582443,102.821838 
	C144.881302,92.709679 146.739807,84.534485 148.691895,75.947655 
	C145.254791,75.635544 142.339981,75.370857 139.291534,75.094040 
	C138.583191,70.475395 140.130844,68.627815 144.863953,68.808311 
	C152.806320,69.111191 160.768646,68.891159 168.712845,68.891159 
	C169.490982,73.588577 168.100418,76.076736 163.572418,75.431633 
	C158.884384,74.763748 157.073898,76.968445 156.255310,81.240326 
	C155.131866,87.102875 153.568024,92.881035 152.097809,99.092056 
z"/>
<path fill="#0D0A03" opacity="1.000000" stroke="none" 
	d="
M441.407074,78.577118 
	C440.124512,84.116737 438.967926,89.268211 437.683838,94.987488 
	C443.753387,94.987488 449.190887,94.987488 454.837158,94.987488 
	C455.601135,99.630112 454.537048,101.954979 449.651337,101.806007 
	C442.537109,101.589073 435.411346,101.750320 427.559998,101.750320 
	C427.833099,99.606323 427.897522,98.030022 428.249359,96.520721 
	C429.910248,89.396233 431.638428,82.287323 433.364380,75.178139 
	C435.114258,67.970413 435.130157,67.970284 443.343262,69.616890 
	C442.741150,72.468109 442.137115,75.328545 441.407074,78.577118 
z"/>
<path fill="#0C0903" opacity="1.000000" stroke="none" 
	d="
M424.871674,82.936798 
	C423.826233,87.368729 422.839233,91.388237 421.900604,95.419014 
	C420.274017,102.403938 419.865601,102.659653 411.730499,100.945152 
	C412.683380,96.827431 413.625061,92.701057 414.595184,88.581375 
	C415.658203,84.067245 416.736694,79.556694 417.827759,75.049263 
	C419.512756,68.088219 419.669861,68.002312 427.897308,69.637047 
	C426.914612,73.938438 425.933228,78.233932 424.871674,82.936798 
z"/>
<path fill="#1D1907" opacity="1.000000" stroke="none" 
	d="
M360.957947,68.579178 
	C357.654999,69.149017 354.391205,69.379684 350.664062,69.614243 
	C352.044525,68.948807 353.888336,68.279480 355.732758,67.609932 
	C354.531830,65.063896 353.324066,62.503387 352.241394,59.684353 
	C354.285858,59.462166 356.205231,59.498501 358.535461,59.464359 
	C361.623779,61.880363 364.134460,64.405510 360.957947,68.579178 
z"/>
<path fill="#807643" opacity="1.000000" stroke="none" 
	d="
M299.891235,100.742508 
	C300.801270,94.994873 301.909912,89.047035 303.018555,83.099197 
	C303.324188,83.093361 303.629852,83.087517 303.935516,83.081680 
	C304.240784,87.466682 304.546051,91.851692 304.790558,96.683075 
	C303.971954,96.584557 303.214142,96.039658 302.213745,95.320351 
	C301.420868,97.269745 300.755341,98.906021 299.891235,100.742508 
z"/>
<path fill="#9C8F44" opacity="1.000000" stroke="none" 
	d="
M178.521790,89.952194 
	C179.271561,89.266388 180.459610,88.083305 181.703613,88.021210 
	C186.410904,87.786224 191.136322,87.914818 196.304718,87.922043 
	C195.301880,88.610893 193.878281,89.779404 192.391281,89.866562 
	C187.936081,90.127716 183.456085,89.966187 178.521790,89.952194 
z"/>
<path fill="#807643" opacity="1.000000" stroke="none" 
	d="
M305.195496,101.425995 
	C309.191101,101.942055 313.364990,102.685158 315.541809,97.081589 
	C315.566162,102.487930 311.911682,104.194992 305.195496,101.425995 
z"/>
<path fill="#807643" opacity="1.000000" stroke="none" 
	d="
M292.313416,101.896744 
	C294.090485,101.659813 296.085480,101.624855 298.499634,101.626648 
	C296.789642,101.808502 294.660461,101.953613 292.313416,101.896744 
z"/>
<path fill="#807643" opacity="1.000000" stroke="none" 
	d="
M291.771362,97.208176 
	C291.884155,97.836807 291.794067,98.569084 291.519043,99.621170 
	C291.412231,99.064606 291.490387,98.188217 291.771362,97.208176 
z"/>
<path fill="#807643" opacity="1.000000" stroke="none" 
	d="
M304.744171,99.116669 
	C304.887024,99.371735 304.950043,99.833344 304.982391,100.643509 
	C304.855927,100.435776 304.760132,99.879494 304.744171,99.116669 
z"/>
<path fill="#1D1907" opacity="1.000000" stroke="none" 
	d="
M346.706390,70.998108 
	C346.528717,71.275841 346.055969,71.570465 345.312592,71.940033 
	C345.498413,71.681656 345.954865,71.348328 346.706390,70.998108 
z"/>
<path fill="#1D1907" opacity="1.000000" stroke="none" 
	d="
M348.670258,70.026405 
	C348.643188,70.209717 348.287750,70.435883 347.637146,70.783318 
	C347.675262,70.626144 348.008606,70.347702 348.670258,70.026405 
z"/>
<path fill="#8C7E37" opacity="1.000000" stroke="none" 
	d="
M395.529175,75.419357 
	C397.446686,76.369087 398.960724,77.308182 400.474792,78.247269 
	C398.975220,79.283348 397.594849,80.864861 395.947510,81.224960 
	C393.599609,81.738190 391.055908,81.355499 388.618042,81.355499 
	C388.213165,75.494072 388.275208,75.439705 395.529175,75.419357 
z"/>
<path fill="#A79331" opacity="1.000000" stroke="none" 
	d="
M385.055695,92.215363 
	C387.131256,89.326691 395.007721,87.610458 396.880249,89.566292 
	C397.705261,90.428009 398.039001,92.815147 397.434174,93.786331 
	C395.832947,96.357544 386.955017,95.356911 385.055695,92.215363 
z"/>
<path fill="#9D8B31" opacity="1.000000" stroke="none" 
	d="
M355.352570,75.247963 
	C359.682739,74.876694 362.605133,76.283020 363.828674,80.221802 
	C365.046875,84.143463 362.715210,90.257126 359.002838,93.044945 
	C355.682373,95.538437 351.711639,96.667549 348.496429,93.898941 
	C346.641937,92.302063 345.359436,88.717781 345.641632,86.235138 
	C346.250275,80.880714 349.137268,76.622147 355.352570,75.247963 
z"/>
</svg>